<svg viewBox="0 0 32 32" fill="currentColor">
  <path
    d="M16.533 21.364v5.854c-.007-.01-1.07.012-1.067 0v-5.854a.92.92 0 01-.112-.095l-1.534-1.52a.927.927 0 01-.207-1.014.924.924 0 01.853-.577h3.069a.913.913 0 01.852.577.933.933 0 01-.207 1.013l-1.534 1.52a.885.885 0 01-.113.096zm11.303-10.418c.808 2.116 3.348 9.594.468 13.197-2.787 3.487-7.35 4.693-9.3 5.208-3.002.865-3.008.865-6.01 0-1.949-.515-6.513-1.72-9.3-5.208-2.88-3.604-.34-11.08.468-13.197-.782-.612-2.163-1.967-2.163-3.891C1.999 4.55 4.1 2 6.163 2h.082c1.363.047 2.497 1.483 3.097 2.415a3.714 3.714 0 011.953-.657h9.409c.7.03 1.376.258 1.953.657.597-.932 1.734-2.368 3.097-2.415h.081C27.898 2 30 4.55 30 7.055c0 1.923-1.381 3.279-2.164 3.891zM11.181 14.8c.469 0 .925-.157 1.297-.446.371-.288.638-.693.758-1.15a.743.743 0 00-.315-.811l-2.243-1.438a.727.727 0 00-.862.057 2.136 2.136 0 00-.762 1.644c0 .568.225 1.113.624 1.515.398.402.939.629 1.503.63zm9.487 6.157a5.659 5.659 0 00-.651-2.644 5.605 5.605 0 00-1.807-2.025A3.659 3.659 0 0016 15.55a3.659 3.659 0 00-2.211.736 5.605 5.605 0 00-1.807 2.025 5.659 5.659 0 00-.651 2.644c0 2.913 2.011 4.16 3.698 4.692a3.24 3.24 0 001.94 0c1.687-.533 3.699-1.778 3.699-4.692zm2.277-8.301a2.155 2.155 0 00-.762-1.644.729.729 0 00-.863-.057l-2.243 1.438a.737.737 0 00-.315.81c.12.458.387.863.759 1.151.372.29.828.446 1.297.446a2.12 2.12 0 001.503-.628c.4-.403.623-.948.624-1.516z">
  </path>
</svg>
