<svg viewBox="0 0 32 32" fill="currentColor">
  <path
    d="M29.832 7.782c-.65-3.088-3.175-4.65-7.724-4.781a.345.345 0 00-.356.27.35.35 0 00.18.404c2.017 1.054 3.06 2.274 3.279 3.844.242 1.787-1.695 2.408-3.576 2.69a2.073 2.073 0 00-1.649-.669 3.943 3.943 0 00-1.65.375 9.498 9.498 0 01-2.326.449h-.02a9.494 9.494 0 01-2.326-.449 3.942 3.942 0 00-1.65-.375 2.074 2.074 0 00-1.65.67c-1.88-.283-3.818-.904-3.575-2.691.22-1.57 1.261-2.79 3.28-3.844a.35.35 0 00.179-.405.344.344 0 00-.356-.27c-4.548.132-7.075 1.694-7.724 4.782-.774 3.677 1.21 5.83 4.29 7.276l-.372.454-.637.707c-.623.681-1.17 1.376-1.19 2.13a1.616 1.616 0 00.403 1.219 1.747 1.747 0 001.32.456c.315-.005.63-.036.94-.092a25.37 25.37 0 002.18-.486c.274.745.799 2.123 1.245 3.06.338.714.598 1.463.776 2.233-.09.546-.314 2.472.748 3.534.834.834 2.48 1.01 3.713 1.01.194 0 .339-.007.41-.01h.01c.07.003.215.01.41.01 1.233 0 2.878-.176 3.712-1.01 1.063-1.062.838-2.988.748-3.534.178-.77.439-1.519.777-2.234.448-.936.971-2.315 1.244-3.059.52.138 1.346.343 2.18.486.31.056.625.087.94.092a1.747 1.747 0 001.32-.456 1.617 1.617 0 00.404-1.22c-.02-.753-.567-1.448-1.19-2.13l-.638-.706-.372-.454c3.083-1.446 5.067-3.599 4.293-7.276zm-16.288 10.61a1.597 1.597 0 01-1.365.78 1.59 1.59 0 01-1.432-2.281 1.58 1.58 0 01.445-.553.59.59 0 01.755.018l1.477 1.271a.618.618 0 01.12.766zm6.28.78a1.598 1.598 0 01-1.366-.78.617.617 0 01.12-.765l1.478-1.271a.591.591 0 01.755-.018 1.58 1.58 0 01.136 2.367 1.591 1.591 0 01-1.123.465v.001z">
  </path>
</svg>