<svg viewBox="0 0 32 32" fill="currentColor">
  <path
    d="M16 2C8.267 2 2 7.486 2 14.249a11.719 11.719 0 005.169 9.5 1.72 1.72 0 01.738 1.636l-.516 3.628a.868.868 0 00.86.994H12.5v-3.07a.438.438 0 01.438-.437h.875a.438.438 0 01.438.438V30h3.498v-3.062a.438.438 0 01.438-.438h.875a.438.438 0 01.438.438V30h4.25a.869.869 0 00.858-.994l-.515-3.628a1.713 1.713 0 01.738-1.635A11.719 11.719 0 0030 14.244C30 7.486 23.733 2 16 2zm-5.251 17.5a3.5 3.5 0 110-7 3.5 3.5 0 010 7zm10.5 0a3.5 3.5 0 110-7 3.5 3.5 0 010 7z">
  </path>
</svg>