<svg viewBox="0 0 24 24" fill="currentColor">
  <path
    d="M5.572 11.475a.934.934 0 01.937-.933l1.553.005a.934.934 0 01.933.934v5.874c.175-.052.4-.107.646-.165a.778.778 0 00.6-.757V9.146a.935.935 0 01.933-.934h1.556a.934.934 0 01.934.934v6.763s.39-.158.769-.318a.78.78 0 00.475-.717V6.81a.935.935 0 01.934-.934h1.556a.934.934 0 01.934.934v6.64c1.349-.979 2.716-2.155 3.8-3.57a1.568 1.568 0 00.24-1.463A10.982 10.982 0 0012.138 1C6.039.919.998 5.899 1 12.001a10.968 10.968 0 001.46 5.502 1.39 1.39 0 001.326.688c.295-.026.661-.063 1.097-.114a.777.777 0 00.69-.772v-5.83zM5.538 20.896a10.991 10.991 0 0017.433-9.649c-4.017 5.994-11.434 8.795-17.433 9.649z">
  </path>
</svg>