<svg width="13" height="13" viewBox="0 0 13 13" fill="none" xmlns="http://www.w3.org/2000/svg">
<path d="M13 4.44738V6.50002C13 8.20031 10.0894 9.579 6.5 9.579C2.91055 9.579 0 8.20031 0 6.50002V4.44738C0 6.14764 2.91055 7.52637 6.5 7.52637C10.0894 7.52637 13 6.14764 13 4.44738ZM0 7.86841C0 9.56867 2.91055 10.9474 6.5 10.9474C10.0894 10.9474 13 9.56867 13 7.86841V9.92104C13 11.6213 10.0894 13 6.5 13C2.91055 13 0 11.6213 0 9.92104V7.86841ZM6.5 6.15791C2.91055 6.15791 0 4.77922 0 3.07895C0 1.37869 2.91055 0 6.5 0C10.0894 0 13 1.37869 13 3.07895C13 4.77922 10.0894 6.15791 6.5 6.15791Z" />
</svg>
