<svg width="32" height="32" viewBox="0 0 32 32" fill="none" xmlns="http://www.w3.org/2000/svg">
<path fill-rule="evenodd" clip-rule="evenodd" d="M32 0H0V32H32V0ZM17.2459 16.237C17.2459 17.42 18.2118 18.3913 19.3878 18.3913C20.5858 18.3913 21.5298 17.42 21.5298 16.237C21.5518 15.0511 20.5858 14.0798 19.3878 14.0798C18.1898 14.0798 17.2459 15.054 17.2459 16.237ZM9.33025 16.237C9.33025 17.42 10.2962 18.3913 11.4722 18.3913C12.6702 18.3913 13.6142 17.42 13.6142 16.237C13.6362 15.0511 12.6702 14.0798 11.4722 14.0798C10.2742 14.0798 9.33025 15.054 9.33025 16.237ZM18.7857 7.27466C20.5074 7.53851 22.157 8.00243 23.7 8.64032C26.3971 12.2009 27.7362 16.2167 27.2439 20.8443C25.1803 22.2099 23.1763 23.0363 21.2099 23.5785C20.7207 22.9899 20.291 22.3607 19.9178 21.6996C20.6297 21.4619 21.3103 21.1661 21.9563 20.824C21.787 20.7138 21.6208 20.5949 21.4577 20.476C17.5814 22.0969 13.3226 22.0969 9.40238 20.476C9.24244 20.5949 9.07309 20.7109 8.90374 20.824C9.54665 21.1661 10.2272 21.4619 10.936 21.6996C10.5628 22.3607 10.13 22.987 9.64387 23.5785C7.68065 23.0363 5.67979 22.2099 3.61622 20.8472C3.19598 16.8517 4.0396 12.8011 7.15064 8.64322C8.69362 8.00533 10.3464 7.53851 12.0712 7.27466C12.2845 7.6139 12.5385 8.06912 12.7079 8.43155C14.508 8.188 16.3238 8.188 18.1553 8.43155C18.3278 8.06912 18.5724 7.6139 18.7857 7.27466Z" fill="#070D13"/>
</svg>
