<svg width="16" height="14" viewBox="0 0 16 14" fill="none" xmlns="http://www.w3.org/2000/svg">
<path d="M13.8182 0C14.3969 0 14.9518 0.221246 15.361 0.615068C15.7701 1.0089 16 1.54304 16 2.1V3.49999H14.5455V11.9C14.5455 12.457 14.3156 12.9911 13.9065 13.3849C13.4972 13.7787 12.9423 14 12.3637 14H2.18182C1.60317 14 1.04821 13.7787 0.639038 13.3849C0.22987 12.9911 0 12.457 0 11.9V10.5H11.6364V11.9C11.6364 12.0715 11.7018 12.2369 11.8201 12.3651C11.9385 12.4931 12.1017 12.5751 12.2786 12.5951L12.3637 12.6C12.5417 12.6 12.7137 12.537 12.8468 12.4231C12.98 12.3091 13.065 12.1522 13.0858 11.9819L13.0909 11.9V9.10003H1.45455V2.1C1.45455 1.54304 1.68441 1.0089 2.09359 0.615068C2.50275 0.221246 3.05772 0 3.63637 0H13.8182Z" fill="#070D13"/>
</svg>
