<svg width="9" height="13" viewBox="0 0 9 13" fill="none" xmlns="http://www.w3.org/2000/svg">
<path d="M4.5 4.56375e-08C3.30654 4.56375e-08 2.16201 0.488945 1.3181 1.35966C0.474192 2.23038 0 3.41128 0 4.64266C0 8.35676 4.5 13 4.5 13C4.5 13 9 8.35676 9 4.64266C9.00008 4.03293 8.88374 3.42994 8.65763 2.8666C8.43152 2.30325 8.10008 1.79082 7.68221 1.35966C7.26433 0.928511 6.76798 0.586229 6.22199 0.352929C5.67599 0.11963 5.09097 -8.53347e-05 4.5 4.56375e-08ZM4.5 6.49999C4.14408 6.49999 3.79624 6.39168 3.50027 6.18768C3.20432 5.98369 2.97364 5.69286 2.83738 5.35361C2.70112 5.01435 2.66529 4.64104 2.73464 4.28085C2.80399 3.92065 2.97522 3.58973 3.22681 3.32998C3.4784 3.07021 3.79904 2.89397 4.1481 2.82216C4.49715 2.75036 4.8589 2.78591 5.18782 2.92626C5.51672 3.06662 5.79798 3.30532 5.9959 3.61054C6.19383 3.91576 6.29957 4.27416 6.29981 4.6414C6.29989 4.88536 6.25334 5.12692 6.16293 5.35233C6.07253 5.57775 5.94001 5.7828 5.77288 5.95536C5.60576 6.12793 5.40746 6.26437 5.18904 6.3578C4.97063 6.45124 4.73644 6.4999 4.5 6.49999Z" fill="#A4A4A4"/>
</svg>
