<svg width="20" height="20" viewBox="0 0 20 20" fill="none" xmlns="http://www.w3.org/2000/svg">
<path d="M15.4887 6.33689H13.7192C13.6172 6.33633 13.5164 6.3126 13.4235 6.26725C13.3306 6.22191 13.2476 6.15598 13.1801 6.07378L12.4624 5.20267C12.4096 5.13894 12.3449 5.08793 12.2725 5.05299C12.2001 5.01806 12.1217 5 12.0423 5C11.9626 5.00039 11.8837 5.01861 11.8108 5.0535C11.738 5.08839 11.6726 5.13919 11.619 5.20267L11.0038 5.94933C10.9047 6.07083 10.7826 6.16824 10.6458 6.23506C10.5089 6.30188 10.3603 6.3366 10.21 6.33689H0.525881C0.246675 7.19716 0.0699742 8.09199 0 9H9.14172C9.22092 8.9999 9.29928 8.9825 9.37205 8.94889C9.44481 8.91527 9.51048 8.86614 9.56508 8.80444L10.4184 7.848C10.4701 7.78684 10.5328 7.73764 10.6027 7.70341C10.6727 7.66918 10.7484 7.65062 10.8252 7.6489H10.8583C10.9381 7.64885 11.0171 7.66686 11.09 7.70178C11.163 7.7367 11.2283 7.78774 11.2816 7.85155L11.9993 8.72267C12.0665 8.80541 12.1493 8.8717 12.2423 8.91709C12.3353 8.96248 12.4363 8.9859 12.5385 8.98579H20C19.9305 8.07738 19.7527 7.18232 19.4708 6.32267H15.5019L15.4887 6.33689Z" fill="#070D13"/>
<path d="M5.46702 15C5.54731 14.9997 5.62671 14.9823 5.70049 14.949C5.77424 14.9156 5.84086 14.8669 5.89635 14.8058L6.75832 13.8561C6.81221 13.7984 6.87639 13.7525 6.94719 13.721C7.01799 13.6895 7.09399 13.673 7.17086 13.6725H7.20776C7.28867 13.6729 7.36861 13.691 7.44251 13.7257C7.51641 13.7603 7.58267 13.8107 7.63707 13.8738L8.3649 14.7387C8.43246 14.8206 8.51593 14.8863 8.60965 14.9314C8.70338 14.9764 8.8052 14.9998 8.90824 15H19.1681C19.5549 14.1536 19.8346 13.2575 20 12.3345H10.1593C10.056 12.3346 9.95393 12.3117 9.8597 12.2673C9.76547 12.2229 9.68126 12.1579 9.61258 12.0768L8.88476 11.2048C8.83107 11.1406 8.76503 11.0891 8.69102 11.0538C8.61699 11.0185 8.5367 11.0002 8.45545 11C8.37461 10.9998 8.29469 11.0179 8.22116 11.0533C8.14764 11.0886 8.08225 11.1403 8.02949 11.2048L7.40565 11.9462C7.30478 12.0675 7.18056 12.1649 7.04118 12.2319C6.90183 12.2988 6.75052 12.3338 6.59733 12.3345H0C0.165305 13.2575 0.444957 14.1536 0.831794 15H5.46702Z" fill="#070D13"/>
<path d="M12.6919 4C12.7714 3.99997 12.8501 3.98384 12.9232 3.95259C12.9963 3.92135 13.0624 3.87564 13.1175 3.81818L13.9653 2.93224C14.0177 2.87718 14.0807 2.83327 14.1504 2.80317C14.2201 2.77307 14.2952 2.75738 14.3711 2.75704H14.4074C14.4873 2.75719 14.5663 2.77437 14.6391 2.80742C14.7119 2.84048 14.7768 2.88866 14.8297 2.94878L15.5422 3.75867C15.6102 3.83419 15.6931 3.89464 15.7857 3.9362C15.8783 3.97775 15.9785 3.99948 16.0799 4H18C17.0669 2.75771 15.8586 1.74971 14.4703 1.05552C13.0819 0.361346 11.5516 0 9.99997 0C8.44839 0 6.91804 0.361346 5.52969 1.05552C4.14135 1.74971 2.933 2.75771 2 4H12.6919Z" fill="#070D13"/>
<path d="M9.31848 17.1184H6.61394C6.51008 17.1182 6.40747 17.0985 6.31298 17.0606C6.21852 17.0226 6.1344 16.9672 6.06628 16.8982L5.34958 16.1696C5.29473 16.1164 5.22796 16.0739 5.15347 16.0447C5.07897 16.0156 4.99839 16.0003 4.91684 16C4.83574 16 4.75555 16.0151 4.68154 16.0443C4.60755 16.0735 4.54141 16.1162 4.48749 16.1696L3.85531 16.8061C3.75334 16.9078 3.62798 16.9892 3.48753 17.0452C3.34707 17.101 3.19473 17.1301 3.04057 17.1302H3C3.95944 18.0358 5.12044 18.7578 6.41073 19.2515C7.70103 19.7451 9.093 20 10.5 20C11.9071 20 13.299 19.7451 14.5893 19.2515C15.8796 18.7578 17.0406 18.0358 18 17.1302L9.31848 17.1184Z" fill="#070D13"/>
</svg>
