<svg width="32" height="32" viewBox="0 0 32 32" fill="none" xmlns="http://www.w3.org/2000/svg">
<path fill-rule="evenodd" clip-rule="evenodd" d="M32 0H0V32H32V0ZM24.9519 9.00925L26.6868 7.36691H26.7222V7H20.7207L16.4365 17.518L11.568 7H5.28325V7.36691L7.30146 9.77801C7.5139 9.95272 7.62012 10.2148 7.58471 10.4769V19.964C7.63782 20.3135 7.53161 20.6629 7.28376 20.9075L5 23.6331V23.9825H11.4618V23.6156L9.17803 20.89C8.93018 20.628 8.80627 20.296 8.85938 19.9466V11.7523L14.5245 23.9651H15.1795L20.048 11.7523V21.4841C20.048 21.7287 20.048 21.7811 19.871 21.9558L18.1183 23.6331V24H26.6337V23.6331L24.9519 21.9907C24.8102 21.8859 24.7217 21.6937 24.7571 21.519V9.48099C24.7217 9.30627 24.8102 9.11408 24.9519 9.00925Z" fill="#070D13"/>
</svg>
