<svg width="15" height="15" viewBox="0 0 15 15" fill="none" xmlns="http://www.w3.org/2000/svg">
<path d="M5.71429 13.5652H2.85715V15H1.42857V13.5652H0.714287C0.524845 13.5652 0.343164 13.4897 0.20921 13.3552C0.0752542 13.2206 0 13.0382 0 12.8479V2.08737C0 1.89712 0.0752542 1.71465 0.20921 1.58012C0.343164 1.44559 0.524845 1.37001 0.714287 1.37001H5.71429V0.358518C5.71432 0.306453 5.72562 0.255015 5.74744 0.207781C5.76925 0.160547 5.80103 0.118647 5.84059 0.0849945C5.88015 0.0513406 5.92653 0.0267408 5.9765 0.0129015C6.02649 -0.000936804 6.07887 -0.00368237 6.13 0.00485617L13.6886 1.27029C13.8554 1.29814 14.0069 1.38451 14.1162 1.51402C14.2256 1.64354 14.2856 1.80781 14.2857 1.97762V3.52211H15V4.95685H14.2857V9.97846H15V11.4131H14.2857V12.9577C14.2856 13.1274 14.2256 13.2917 14.1162 13.4212C14.0069 13.5507 13.8554 13.6371 13.6886 13.665L12.8571 13.8041V15H11.4285V14.0438L6.13 14.9304C6.07887 14.9389 6.02649 14.9362 5.9765 14.9224C5.92653 14.9085 5.88015 14.8839 5.84059 14.8503C5.80103 14.8166 5.76925 14.7748 5.74744 14.7275C5.72562 14.6803 5.71432 14.6288 5.71429 14.5768V13.5652ZM7.14287 13.307L12.8571 12.35V2.58523L7.14287 1.62898V13.307ZM10.3571 9.26106C9.76567 9.26106 9.28572 8.4576 9.28572 7.46763C9.28572 6.47767 9.76567 5.67422 10.3571 5.67422C10.9485 5.67422 11.4285 6.47767 11.4285 7.46763C11.4285 8.4576 10.9485 9.26106 10.3571 9.26106Z"/>
</svg>
