<svg width="14" height="13" viewBox="0 0 14 13" fill="none" xmlns="http://www.w3.org/2000/svg">
<path d="M0.700005 0H13.2999C13.4856 0 13.6637 0.0760933 13.7949 0.211538C13.9262 0.346972 14 0.530675 14 0.722219V12.2778C14 12.4693 13.9262 12.653 13.7949 12.7884C13.6637 12.9239 13.4856 13 13.2999 13H0.700005C0.514356 13 0.336306 12.9239 0.205029 12.7884C0.0737519 12.653 0 12.4693 0 12.2778V0.722219C0 0.530675 0.0737519 0.346972 0.205029 0.211538C0.336306 0.0760933 0.514356 0 0.700005 0ZM9.09995 2.88889V4.33333H6.29999V5.77778H9.09995V7.22222L11.55 5.05555L9.09995 2.88889ZM4.89999 10.1111V8.66667H7.69999V7.22222H4.89999V5.77778L2.45 7.94448L4.89999 10.1111Z" fill="#737373"/>
</svg>
