<svg width="32" height="32" viewBox="0 0 32 32" fill="none" xmlns="http://www.w3.org/2000/svg">
<path fill-rule="evenodd" clip-rule="evenodd" d="M32 0H0V32H32V0ZM17.431 9.95958C15.486 10.7696 11.596 12.4446 5.7659 14.9846C4.82089 15.3596 4.32338 15.7296 4.27838 16.0897C4.20346 16.6965 4.96422 16.9366 5.99999 17.2636L6.0034 17.2647L6.44091 17.4022C7.46092 17.7347 8.83593 18.1222 9.54844 18.1372C10.1985 18.1522 10.921 17.8872 11.7185 17.3372C17.166 13.6596 19.9786 11.8021 20.1536 11.7621C20.2786 11.7321 20.4536 11.6971 20.5686 11.8021C20.6861 11.9046 20.6736 12.1021 20.6611 12.1546C20.5874 12.4715 17.6966 15.1613 16.128 16.6209L16.046 16.6972L15.7924 16.9336C15.4458 17.2567 15.208 17.4781 15.151 17.5372C14.9969 17.6947 14.8402 17.8497 14.681 18.0022C13.731 18.9172 13.021 19.6022 14.7185 20.7222C15.536 21.2622 16.191 21.7047 16.8435 22.1497C17.5535 22.6347 18.2635 23.1172 19.1836 23.7222C19.3911 23.8561 19.5926 24 19.7882 24.1395L19.8586 24.1897C20.6861 24.7798 21.4336 25.3098 22.3511 25.2248C22.8861 25.1748 23.4386 24.6748 23.7186 23.1747C24.3811 19.6322 25.6836 11.9596 25.9836 8.79707C26.0019 8.53417 25.991 8.27005 25.9511 8.00956C25.9276 7.79936 25.8259 7.6057 25.6661 7.46705C25.4387 7.31002 25.1675 7.22867 24.8911 7.23455C24.1411 7.24705 22.9836 7.64955 17.431 9.95958Z" fill="#070D13"/>
</svg>
