<svg width="32" height="32" viewBox="0 0 32 32" fill="none" xmlns="http://www.w3.org/2000/svg">
<path fill-rule="evenodd" clip-rule="evenodd" d="M32 0H0V32H32V0ZM25.0582 9.84992C26.0025 9.73973 26.9007 9.49594 27.7368 9.13513L27.7348 9.13805C27.1089 10.0497 26.3212 10.8455 25.4087 11.4882C25.4177 11.6832 25.4227 11.8802 25.4227 12.0752C25.4227 18.0783 20.7313 25 12.1497 25C9.6146 25.0027 7.13237 24.2941 5 22.959C5.36958 23.0013 5.74139 23.0225 6.11351 23.0224C8.21425 23.0254 10.255 22.3402 11.9074 21.0769C10.934 21.0596 9.99051 20.7462 9.20908 20.1807C8.42764 19.6152 7.84736 18.8259 7.54946 17.9233C8.24874 18.053 8.96917 18.0264 9.65632 17.8453C8.60046 17.6375 7.65093 17.0803 6.96885 16.2684C6.28678 15.4565 5.91417 14.4397 5.91424 13.3907V13.3322C6.56199 13.6829 7.28638 13.8778 8.02711 13.9007C7.3884 13.4854 6.86485 12.9229 6.50292 12.2632C6.14098 11.6035 5.95184 10.867 5.95229 10.1191C5.95229 9.28823 6.1826 8.5081 6.58315 7.83524C7.75458 9.23865 9.21594 10.3865 10.8724 11.2043C12.5288 12.0221 14.3434 12.4916 16.1982 12.5823C15.9634 11.6079 16.0655 10.5852 16.4887 9.67313C16.9119 8.76102 17.6325 8.01049 18.5386 7.53806C19.4447 7.06564 20.4856 6.89775 21.4997 7.06045C22.5138 7.22316 23.4444 7.70736 24.147 8.43789C25.1917 8.23817 26.1936 7.86546 27.109 7.33596C26.7615 8.38861 26.0325 9.28218 25.0582 9.84992Z" fill="#070D13"/>
</svg>
